<?xml version="1.0" encoding="utf-8"?>
<!-- Generator: Adobe Illustrator 25.0.0, SVG Export Plug-In . SVG Version: 6.00 Build 0)  -->
<svg version="1.1" id="Layer_1" xmlns="http://www.w3.org/2000/svg" xmlns:xlink="http://www.w3.org/1999/xlink" x="0px" y="0px"
	 viewBox="0 0 600 138.6" style="enable-background:new 0 0 600 138.6;" xml:space="preserve">
<style type="text/css">
	.st0{fill:#FCFCFC;}
	.st1{fill:#CF1767;}
	.st2{fill:#FFFFFF;}
</style>
<text transform="matrix(1 0 0 1 32.997 458.8898)" style="fill:none; font-family:'MyriadPro-Regular'; font-size:12px;">Mohammad OF.</text>
<g>
	<path class="st0" d="M12.2,20.2c6.7-1.1,15.5-2.1,26.8-2.1c13.8,0,23.9,3.2,30.3,9c5.9,5.1,9.5,13,9.5,22.6
		c0,9.8-2.9,17.5-8.3,23.1C63,80.6,51,84.7,37.3,84.7c-4.2,0-8-0.2-11.2-1V127H12.2V20.2z M26.1,72.3c3,0.8,6.9,1.1,11.5,1.1
		c16.8,0,27.1-8.2,27.1-23.1c0-14.3-10.1-21.2-25.5-21.2c-6.1,0-10.7,0.5-13.1,1.1V72.3z"/>
	<path class="st0" d="M94.4,73.6c0-9.1-0.2-17-0.6-24.2h12.3l0.5,15.2h0.6c3.5-10.4,12-17,21.5-17c1.6,0,2.7,0.2,4,0.5v13.3
		c-1.4-0.3-2.9-0.5-4.8-0.5c-9.9,0-17,7.5-18.9,18.1c-0.3,1.9-0.6,4.2-0.6,6.6V127H94.4V73.6z"/>
	<path class="st0" d="M215.4,87.5c0,28.7-19.9,41.2-38.6,41.2c-21,0-37.2-15.4-37.2-39.9c0-26,17-41.2,38.5-41.2
		C200.4,47.6,215.4,63.8,215.4,87.5z M153.9,88.3c0,17,9.8,29.8,23.6,29.8c13.5,0,23.6-12.7,23.6-30.1c0-13.1-6.6-29.8-23.2-29.8
		C161.1,58.2,153.9,73.6,153.9,88.3z"/>
	<path class="st1" d="M250.2,27.1v22.3h20.2v10.7h-20.2V102c0,9.6,2.7,15.1,10.6,15.1c3.7,0,6.4-0.5,8.2-1l0.6,10.6
		c-2.7,1.1-7.1,1.9-12.5,1.9c-6.6,0-11.9-2.1-15.2-5.9c-4-4.2-5.5-11.1-5.5-20.2V60.1h-12V49.4h12V30.8L250.2,27.1z"/>
	<path class="st1" d="M287.7,127V60.1h-10.9V49.4h10.9v-3.7c0-10.9,2.4-20.8,9-27.1c5.3-5.1,12.3-7.2,18.9-7.2c5,0,9.3,1.1,12,2.2
		l-1.9,10.9c-2.1-1-5-1.8-9-1.8c-12,0-15.1,10.6-15.1,22.4v4.2h18.8v10.7h-18.8V127H287.7z"/>
	<path class="st2" d="M401.2,87.5c0,28.7-19.9,41.2-38.6,41.2c-21,0-37.2-15.4-37.2-39.9c0-26,17-41.2,38.5-41.2
		C386.2,47.6,401.2,63.8,401.2,87.5z M339.7,88.3c0,17,9.8,29.8,23.6,29.8c13.5,0,23.6-12.7,23.6-30.1c0-13.1-6.6-29.8-23.2-29.8
		C346.9,58.2,339.7,73.6,339.7,88.3z"/>
	<path class="st2" d="M419,13.2h14.1V127H419V13.2z"/>
	<path class="st2" d="M472.6,27.6c0.2,4.8-3.4,8.7-9,8.7c-5,0-8.5-3.8-8.5-8.7c0-5,3.7-8.8,8.8-8.8
		C469.2,18.8,472.6,22.6,472.6,27.6z M456.9,127V49.4H471V127H456.9z"/>
	<path class="st2" d="M564.6,87.5c0,28.7-19.9,41.2-38.6,41.2c-21,0-37.2-15.4-37.2-39.9c0-26,17-41.2,38.5-41.2
		C549.5,47.6,564.6,63.8,564.6,87.5z M503,88.3c0,17,9.8,29.8,23.6,29.8c13.5,0,23.6-12.7,23.6-30.1c0-13.1-6.6-29.8-23.2-29.8
		C510.2,58.2,503,73.6,503,88.3z"/>
	<path class="st2" d="M575.2,118.6c0-5.9,4-10.1,9.6-10.1s9.5,4.2,9.5,10.1c0,5.8-3.7,10.1-9.6,10.1
		C579,128.7,575.2,124.4,575.2,118.6z"/>
</g>
</svg>
